<?xml version="1.0" standalone="no"?><!DOCTYPE svg PUBLIC "-//W3C//DTD SVG 1.1//EN" "http://www.w3.org/Graphics/SVG/1.1/DTD/svg11.dtd"><svg t="1622085676094" class="icon" viewBox="0 0 1024 1024" version="1.1" xmlns="http://www.w3.org/2000/svg" p-id="8712" xmlns:xlink="http://www.w3.org/1999/xlink" width="200" height="200"><defs><style type="text/css"></style></defs><path d="M578.7648 248.2176c27.0336 0 50.3808 18.8416 56.1152 45.2608 6.9632-30.9248-12.288-61.6448-43.2128-68.608s-61.6448 12.288-68.608 43.2128c-0.8192 3.8912-1.4336 7.9872-1.4336 12.0832v24.1664c0.8192-31.1296 26.0096-55.9104 57.1392-56.1152z" fill="#FF9CB8" p-id="8713"></path><path d="M463.0528 248.2176c27.0336 0 50.3808 18.8416 56.1152 45.2608 6.9632-30.9248-12.288-61.6448-43.2128-68.608s-61.6448 12.288-68.608 43.2128c-0.8192 3.8912-1.4336 7.9872-1.4336 12.0832v24.1664c0.8192-31.1296 26.0096-55.9104 57.1392-56.1152z" fill="#FF9CB8" p-id="8714"></path><path d="M244.736 342.8352h543.3344c22.528 0 40.96 18.432 40.96 40.96v66.1504c0 22.528-18.432 40.96-40.96 40.96H244.736c-22.528 0-40.96-18.432-40.96-40.96v-66.1504c0-22.528 18.432-40.96 40.96-40.96z" fill="#FD678C" p-id="8715"></path><path d="M351.0272 447.488V389.12c0-21.504 14.5408-39.1168 32.3584-39.1168h-56.1152c-17.8176 0-32.3584 17.6128-32.3584 39.1168v58.368c0 21.504 14.5408 39.1168 32.3584 39.1168h56.1152c-17.8176 0-32.3584-17.6128-32.3584-39.1168z" fill="#FFFFFF" p-id="8716"></path><path d="M806.7072 346.9312c2.4576 5.12 3.6864 10.8544 3.6864 16.5888v67.9936c-0.2048 21.9136-18.0224 39.7312-39.936 39.936H224.8704c-6.144 0-12.0832-1.4336-17.6128-4.096 6.5536 14.336 20.6848 23.552 36.4544 23.552h545.3824c21.9136-0.2048 39.7312-18.0224 39.936-39.936V382.976c0.2048-15.36-8.6016-29.2864-22.3232-36.0448z" fill="#FC2E78" p-id="8717"></path><path d="M273.8176 488.8576h484.9664c22.528 0 40.96 18.432 40.96 40.96v282.2144c0 22.528-18.432 40.96-40.96 40.96H273.8176c-22.528 0-40.96-18.432-40.96-40.96V529.8176c0-22.528 18.432-40.96 40.96-40.96z" fill="#FD678C" p-id="8718"></path><path d="M250.88 361.8816h545.3824c21.9136 0.2048 39.7312 18.0224 39.936 39.936v-13.9264c0-21.9136-17.8176-39.7312-39.936-39.936H250.88c-6.7584 0-13.1072 1.8432-18.8416 4.9152 0.6144-2.8672 1.8432-5.7344 3.2768-8.6016-17.408 4.7104-29.4912 20.48-29.696 38.5024v67.9936c0.2048 21.9136 18.0224 39.7312 39.936 39.936h545.3824c15.1552 0 28.8768-8.6016 35.6352-22.1184-3.2768 1.024-6.7584 1.4336-10.24 1.4336H270.9504c-21.9136-0.2048-39.7312-18.0224-39.936-39.936v-47.7184c0-11.0592 8.6016-20.2752 19.6608-20.48h0.2048z" fill="#FF9CB8" p-id="8719"></path><path d="M259.6864 832.512V548.4544c0-21.9136 17.8176-39.7312 39.7312-39.936h484.352c6.3488 0 12.4928 1.4336 18.0224 4.3008-7.3728-10.4448-19.456-16.7936-32.3584-16.7936H285.0816c-21.9136 0.2048-39.7312 18.0224-39.7312 39.936v284.0576c0 14.9504 8.6016 28.8768 21.9136 35.6352-4.7104-6.7584-7.3728-14.7456-7.5776-23.1424z" fill="#FF9CB8" p-id="8720"></path><path d="M349.7984 812.8512V528.7936c0.2048-21.9136 18.0224-39.7312 39.936-39.936h-56.9344c-21.9136 0.2048-39.7312 18.0224-39.936 39.936v284.0576c0.2048 21.9136 18.0224 39.7312 39.936 39.936h56.9344c-21.9136-0.2048-39.7312-18.0224-39.936-39.936z" fill="#FFFFFF" p-id="8721"></path><path d="M774.5536 488.6528c3.4816 5.9392 5.3248 12.6976 5.3248 19.6608v284.0576c-0.2048 21.9136-18.0224 39.7312-39.936 39.936H252.928c-5.7344 0-11.4688-1.2288-16.7936-3.6864 7.168 12.4928 20.48 20.2752 34.816 20.2752h487.0144c21.9136-0.2048 39.7312-18.0224 39.936-39.936V524.9024c0-15.5648-9.0112-29.696-23.3472-36.2496z" fill="#FC2E78" p-id="8722"></path><path d="M793.1904 499.0976H249.856c-28.2624 0-51.2-22.9376-51.2-51.2v-66.1504c0-28.2624 22.9376-51.2 51.2-51.2h543.3344c28.2624 0 51.2 22.9376 51.2 51.2v66.1504c0 28.2624-22.9376 51.2-51.2 51.2zM249.856 351.0272c-16.9984 0-30.72 13.7216-30.72 30.72v66.1504c0 16.9984 13.7216 30.72 30.72 30.72h543.3344c16.9984 0 30.72-13.7216 30.72-30.72v-66.1504c0-16.9984-13.7216-30.72-30.72-30.72H249.856z" fill="#8C2F75" p-id="8723"></path><path d="M764.1088 863.232H279.1424c-28.2624 0-51.2-22.9376-51.2-51.2V529.8176c0-28.2624 22.9376-51.2 51.2-51.2h484.9664c28.2624 0 51.2 22.9376 51.2 51.2v282.2144c0 28.2624-22.9376 51.2-51.2 51.2zM279.1424 499.0976c-16.9984 0-30.72 13.7216-30.72 30.72v282.2144c0 16.9984 13.7216 30.72 30.72 30.72h484.9664c16.9984 0 30.72-13.7216 30.72-30.72V529.8176c0-16.9984-13.7216-30.72-30.72-30.72H279.1424z" fill="#8C2F75" p-id="8724"></path><path d="M511.3856 329.3184h20.48v529.408h-20.48z" fill="#8C2F75" p-id="8725"></path><path d="M530.6368 351.0272h-68.8128c-36.6592-0.8192-65.536-29.696-66.3552-66.1504-0.8192-37.2736 28.8768-68.1984 66.1504-69.0176 37.2736-0.8192 68.1984 28.8768 69.0176 66.1504v69.0176z m-67.584-114.688h-1.024c-12.4928 0.2048-24.3712 5.3248-32.9728 14.5408-8.6016 9.0112-13.312 21.0944-13.1072 33.5872 0.4096 25.3952 20.6848 45.6704 46.08 46.08h48.128v-48.128c-0.2048-12.4928-5.3248-24.1664-14.5408-32.9728-8.8064-8.3968-20.2752-13.1072-32.5632-13.1072z" fill="#8C2F75" p-id="8726"></path><path d="M521.6256 351.0272h-10.24v-69.0176c0.6144-36.6592 30.9248-66.1504 67.584-66.1504h1.4336c18.0224 0.4096 34.816 7.7824 47.3088 20.6848 12.4928 13.1072 19.0464 30.1056 18.8416 48.3328-0.8192 36.4544-29.696 65.3312-66.1504 66.1504h-58.7776z m10.24-20.48h48.3328c25.1904-0.4096 45.4656-20.6848 45.8752-46.08 0.2048-12.6976-4.3008-24.576-13.1072-33.5872-8.6016-9.0112-20.48-14.1312-32.9728-14.5408-12.6976-0.2048-24.576 4.3008-33.5872 13.1072-9.0112 8.6016-14.1312 20.2752-14.5408 32.9728v48.128z" fill="#8C2F75" p-id="8727"></path></svg>